<svg width="36" height="36" viewBox="0 0 36 36" fill="none" xmlns="http://www.w3.org/2000/svg">
<path d="M29.6954 20.103C26.6384 18.633 21.7199 17.697 17.2454 17.697C14.5034 17.697 12.8189 12.9525 12.3494 9.84454L14.1224 6.83404C14.5199 6.15908 15.0867 5.59958 15.7668 5.21086C16.4469 4.82215 17.2166 4.61768 17.9999 4.61768C18.7832 4.61768 19.553 4.82215 20.233 5.21086C20.9131 5.59958 21.4799 6.15908 21.8774 6.83404L29.6954 20.103ZM32.2049 24.3615L32.4149 24.7155C32.8177 25.3992 33.0326 26.1771 33.0378 26.9706C33.043 27.764 32.8383 28.5448 32.4445 29.2336C32.0507 29.9224 31.4817 30.4949 30.7953 30.8929C30.1089 31.2909 29.3294 31.5004 28.5359 31.5H7.46242C6.66908 31.5001 5.88981 31.2905 5.2036 30.8923C4.51739 30.4942 3.94864 29.9217 3.55498 29.2329C3.16132 28.5442 2.95675 27.7635 2.96201 26.9702C2.96727 26.1769 3.18217 25.3991 3.58492 24.7155L10.3604 13.2195C10.9859 17.3595 13.5764 20.697 17.2454 20.697C21.3659 20.697 27.3104 21.501 32.2049 24.3615Z" fill="black"/>
</svg>
