<svg width="50" height="50" viewBox="0 0 50 50" fill="none" xmlns="http://www.w3.org/2000/svg">
<path d="M25.5208 34.25C25.5208 34.25 25.5104 34.2083 25.5 34.125C25.5208 34.2083 25.5208 34.25 25.5208 34.25Z" fill="#F50057"/>
<path d="M28.5156 8.98461C28.5156 8.98461 28.125 7.55231 28.6458 6.38044C29.1667 5.20856 29.1667 4.42731 28.125 3.25544C30.2083 3.12523 30.9896 4.55752 30.9896 4.55752L31.0156 4.72315C31.1385 5.52106 30.726 6.2794 30.0302 6.68981C29.3948 7.06377 28.7115 7.74711 28.5156 8.98461Z" fill="#F50057"/>
<path d="M43.3647 37.75C43.3855 37.5312 43.7189 34.5833 42.9689 33.2083C41.4064 37.625 39.8439 41.6667 35.2918 44.5312C35.9376 43.2292 36.9793 41.1458 38.0209 38.0208C34.8959 42.1875 28.6459 46.3542 23.9584 46.6146C27.1251 44.8646 28.9064 42.6146 29.6876 41.1458C29.6876 41.1458 27.8647 41.6667 25.6459 41.9271C28.6459 40.1042 30.7293 36.8542 29.6876 31.7708C27.6043 38.2812 24.7397 40.3646 20.9584 40.75C17.1876 41.1458 13.8022 39.1875 13.8022 39.1875L15.1043 39.0625C15.1043 39.0625 11.7189 36.4583 12.8959 33.0729C12.948 32.9062 13.0105 32.75 13.0834 32.6042C13.9376 30.7083 16.8439 31.6667 16.5418 33.7187V33.7292C16.5418 33.7292 17.448 36.1979 19.9168 35.5417C20.7084 34.25 21.2293 32.9375 21.2293 32.9375L21.6147 34.6354C21.6147 34.6354 23.4376 33.8542 23.4376 32.4167C25.0001 33.0104 25.3959 33.75 25.4897 34.0729C25.2189 32.6146 22.8647 22.5833 10.3959 22.7292L8.21886 24.75C8.07303 24.8854 7.84386 24.7708 7.8647 24.5833L8.03136 22.9167L8.1772 22.7708C8.13553 22.7812 8.08345 22.7708 8.04178 22.7708L8.03136 22.9167L7.1772 23.7083C7.03136 23.8438 6.8022 23.7292 6.82303 23.5417L6.9272 22.4792C5.1147 21.7083 4.94803 19.6667 4.94803 19.6667C4.94803 19.6667 2.68761 19.0312 3.64595 16.1458C4.16678 14.5833 5.41678 14.4271 5.94803 14.5521C6.62511 14.7083 7.32303 14.7188 7.96886 14.4583C8.90636 14.0833 10.1043 13.3646 10.9376 11.9792C12.5001 9.375 14.8439 8.33333 19.9168 8.33333C26.6355 8.33333 29.3439 10.3958 29.6564 10.6458C29.4689 10.4271 28.3334 8.91667 30.7293 6.64583C33.0939 4.39583 32.6668 3.86458 32.573 3.78125C32.9272 3.88542 37.5209 5.44792 38.0209 11.4583C38.5418 17.7083 31.2501 19.0104 31.2501 19.0104C31.2501 19.0104 40.6251 20.8333 40.7501 11.9792C42.5834 13.0208 46.3543 16.9271 46.8751 25.3958C47.3855 33.6042 43.5834 37.5312 43.3647 37.75Z" fill="#F50057"/>
<path d="M8.17708 22.771L8.03125 22.9168L8.04167 22.771C8.08333 22.771 8.13542 22.7814 8.17708 22.771Z" fill="#F50057"/>
<path d="M8.17708 22.771L8.03125 22.9168L8.04167 22.771C8.08333 22.771 8.13542 22.7814 8.17708 22.771Z" fill="#F50057"/>
</svg>
