<svg width="50" height="50" viewBox="0 0 50 50" fill="none" xmlns="http://www.w3.org/2000/svg">
<path d="M42.1875 25C42.1875 29.4922 40.4688 33.5781 37.6562 36.6406L37.5227 36.7867L33.5938 31.7547V16.4062H28.125V24.7547L21.6117 16.4062H16.4062V33.5938H21.875V25.4609L33.3281 40.0391C30.8672 41.4062 28.0234 42.1875 25 42.1875C15.5078 42.1875 7.8125 34.4922 7.8125 25C7.8125 15.5078 15.5078 7.8125 25 7.8125C34.4922 7.8125 42.1875 15.5078 42.1875 25Z" fill="url(#paint0_linear_83_359)"/>
<path d="M25 45.3125C13.7992 45.3125 4.6875 36.2 4.6875 25C4.6875 13.8 13.7992 4.6875 25 4.6875C36.2008 4.6875 45.3125 13.8 45.3125 25C45.3125 36.2 36.2008 45.3125 25 45.3125ZM25 6.25C14.6617 6.25 6.25 14.6617 6.25 25C6.25 35.3383 14.6617 43.75 25 43.75C35.3383 43.75 43.75 35.3383 43.75 25C43.75 14.6617 35.3383 6.25 25 6.25ZM32.0312 32.2937V17.9688H29.6875V29.2937L20.8461 17.9688H17.9688V32.0312H20.3125V20.9453L34.6641 39.2188C35.2664 38.8102 35.843 38.3617 36.3922 37.8797L32.0312 32.2937Z" fill="url(#paint1_linear_83_359)"/>
<defs>
<linearGradient id="paint0_linear_83_359" x1="25" y1="42.1875" x2="25" y2="7.8125" gradientUnits="userSpaceOnUse">
<stop stop-color="#E6ABFF"/>
<stop offset="1" stop-color="#6DC7FF"/>
</linearGradient>
<linearGradient id="paint1_linear_83_359" x1="25" y1="45.3125" x2="25" y2="4.6875" gradientUnits="userSpaceOnUse">
<stop stop-color="#C822FF"/>
<stop offset="1" stop-color="#1A6DFF"/>
</linearGradient>
</defs>
</svg>
