<svg width="50" height="50" viewBox="0 0 50 50" fill="none" xmlns="http://www.w3.org/2000/svg">
<path d="M22.75 26.5391H20.7188C20.5625 26.5391 20.4062 26.5703 20.2656 26.625L20.2812 22.4688C21.3047 25.6953 25.0078 26.3594 28.5078 26.7031C33.9922 27.2422 33.9922 27.9688 33.9922 28.4453C33.9922 29.1484 33.9922 30.4453 29.5156 30.4453C25.375 30.4453 24.6172 29.6016 24.3203 27.8516C24.1953 27.0938 23.5234 26.5391 22.75 26.5391ZM25 4.83594L7.8125 14.8516V35.1484L13.3125 38.3516C13.9766 38.7422 14.5781 38.4375 14.7969 38.3047C15.0234 38.1797 15.5469 37.7969 15.5469 37.0234L15.6172 15.2266C15.625 14.5781 16.1484 14.0547 16.7969 14.0547L19.1406 14.0703C19.7891 14.0703 20.3125 14.5938 20.3047 15.2422L20.2969 18.6016C21.2266 15.7578 24.3125 14.0625 28.8047 14.0625C34.8516 14.0625 37.9844 16.3125 38.375 20.9453C38.4062 21.3047 38.2812 21.6719 38.0312 21.9453C37.7734 22.2188 37.4219 22.3672 37.0625 22.3672H35.0469C34.3047 22.3672 33.6406 21.8828 33.4609 21.1641C33.0781 19.5938 32.3359 18.7578 28.7969 18.7578C25.0781 18.7578 25.0781 19.9297 25.0781 20.4219C25.0781 21.0625 25.0781 21.4062 33.5078 22.3906C36.6406 22.7578 39.1562 25.3984 39.0625 28.5547C38.9375 32.6953 35.3828 35.1563 29.4922 35.1563V35.1328C25.6953 35.1328 22.9219 34.2813 21.2422 32.6016C20.8438 32.2031 20.5078 31.7578 20.25 31.2813L20.2344 37.0313C20.2344 38.6875 19.5937 40.2188 18.4609 41.3516L25 45.1641L42.1875 35.1484V14.8516L25 4.83594Z" fill="url(#paint0_linear_83_366)"/>
<path d="M21.0187 28.1359C21.075 29.5031 21.5305 30.6234 22.3742 31.4695C23.7445 32.8414 26.1484 33.5367 29.5203 33.5367V33.557C32.4992 33.5531 37.4641 32.8656 37.4641 28.3312C37.4641 25.3711 35.8992 24.3539 30.1867 23.5953C25.2031 22.9359 23.4797 22.5969 23.4797 20.425C23.4797 17.1609 27.4813 17.1609 28.7953 17.1609C32.6719 17.1609 34.3336 18.0883 35.0141 20.7703H36.7477C36.3203 17.2383 33.8547 15.6617 28.8039 15.6617C24.2242 15.6617 21.5977 17.4328 21.5977 20.5227C21.5977 23.4344 23.3813 24.5922 28.6672 25.1141C33.9758 25.6336 35.5945 26.4117 35.5945 28.4453C35.5945 31.6383 32.3445 32.0477 29.5133 32.0477C24.6102 32.0477 23.2031 30.6789 22.7477 28.1359H21.0187ZM45.3125 14.4062V35.5938C45.3125 36.4297 44.8672 37.2031 44.1484 37.625L26.1797 48.0938C25.8125 48.3047 25.4062 48.4141 25 48.4141C24.5938 48.4141 24.1875 48.3047 23.8203 48.0938L15.2344 43.0938C15.8828 42.9609 16.5156 42.7266 17.1172 42.3828H17.125L24.6094 46.7422C24.8516 46.8906 25.1484 46.8906 25.3906 46.7422L43.3594 36.2734C43.6016 36.1328 43.75 35.875 43.75 35.5938V14.4062C43.75 14.125 43.6016 13.8672 43.3594 13.7266L25.3906 3.25781C25.1484 3.10938 24.8516 3.10938 24.6094 3.25781L6.64062 13.7266C6.39844 13.8672 6.25 14.125 6.25 14.4062V35.5938C6.25 35.875 6.39844 36.1328 6.64062 36.2734L9.51719 37.9531L12.4734 39.6742C13.4297 40.2313 14.582 40.2297 15.5563 39.6703C16.5266 39.1125 17.1062 38.1219 17.1062 37.0195L17.1875 15.6219L18.75 15.6281L18.6687 37.0227C18.6687 38.6875 17.7961 40.1852 16.3352 41.025C15.6023 41.4461 14.8023 41.6562 14.0047 41.6562C13.2063 41.6562 12.4094 41.4453 11.6859 41.0234L8.73281 39.3031L5.85156 37.625C5.13281 37.2031 4.6875 36.4297 4.6875 35.5938V14.4062C4.6875 13.5703 5.13281 12.7969 5.85156 12.375L23.8203 1.90625C24.5469 1.47656 25.4531 1.47656 26.1797 1.90625L44.1484 12.375C44.8672 12.7969 45.3125 13.5703 45.3125 14.4062Z" fill="url(#paint1_linear_83_366)"/>
<defs>
<linearGradient id="paint0_linear_83_366" x1="25" y1="45.1641" x2="25" y2="4.83594" gradientUnits="userSpaceOnUse">
<stop stop-color="#E6ABFF"/>
<stop offset="1" stop-color="#6DC7FF"/>
</linearGradient>
<linearGradient id="paint1_linear_83_366" x1="25" y1="48.4141" x2="25" y2="1.58359" gradientUnits="userSpaceOnUse">
<stop stop-color="#C822FF"/>
<stop offset="1" stop-color="#1A6DFF"/>
</linearGradient>
</defs>
</svg>
