<svg width="50" height="50" viewBox="0 0 50 50" fill="none" xmlns="http://www.w3.org/2000/svg">
<path d="M45.9198 31.0312C45.7292 30.1676 44.9458 29.1603 43.3656 29.1603C43.0427 29.1603 42.6896 29.2009 42.2875 29.2843C41.55 29.4364 40.9219 29.5103 40.3687 29.5353C44.6739 22.202 47.4687 12.0155 44.701 8.47907C41.0541 3.81969 36.1448 3.12386 33.5437 3.12386L33.2989 3.1249C32.3312 3.14053 31.3271 3.25928 30.3167 3.47803L26.5844 4.28428C26.076 4.22074 25.5583 4.17594 25.0187 4.16657H24.9875H24.9708L24.8125 4.16553C23.1531 4.16553 21.6396 4.51761 20.2906 5.17907L18.9875 4.66553C17.1958 3.95928 14.5 3.11865 11.8333 3.11865C11.6833 3.11865 11.5344 3.12178 11.3844 3.12699C8.75728 3.22178 6.50103 4.21865 4.85832 6.00928C2.80832 8.24469 1.87499 11.5145 2.08645 15.7291C2.09686 15.9468 4.64686 37.4999 11.875 37.4999H11.901L11.9677 37.4989C12.9062 37.4759 13.801 37.0989 14.6375 36.377C15.276 36.8562 16.1021 37.1395 16.8719 37.252C17.3802 37.3718 18.2948 37.5416 19.3906 37.5416C20.7281 37.5416 21.9344 37.2676 22.9739 36.7728C22.9729 37.6895 22.9677 38.8499 22.9573 40.3332L22.9562 40.4114L22.9614 40.4895C23.0625 41.9676 23.3177 43.2999 23.7021 44.3447C24.7969 47.3228 26.6875 48.9634 29.026 48.9634C29.1229 48.9634 29.2219 48.9603 29.3219 48.9541C31.2448 48.8353 33.1937 47.7551 34.5344 46.0666C35.9854 44.2384 36.3208 42.3093 36.45 40.8312L36.4583 40.7405V40.6489V36.3999L36.5656 36.4103L37.0198 36.4499L37.0635 36.4541L37.1073 36.4562C37.2364 36.4624 37.3698 36.4645 37.5042 36.4645C39.0739 36.4645 41.0062 36.0572 42.3125 35.4499C43.5614 34.8707 46.4156 33.2791 45.9198 31.0312Z" fill="white"/>
<path d="M34.375 35.4165C34.375 35.203 34.3875 35.0249 34.3938 34.828C34.3834 34.5666 34.375 34.3749 34.375 34.3749C34.375 34.3749 34.3875 34.3655 34.4084 34.352C34.5636 31.5676 35.3313 30.4947 36.1532 29.8832C36.0386 29.7238 35.9063 29.552 35.7823 29.3884C35.4355 28.9332 35.0032 28.3686 34.5407 27.6447L34.4552 27.4801C34.3854 27.3093 34.2167 27.0145 34.0021 26.627C32.7698 24.3978 30.2052 19.7603 31.9604 16.8311C32.7292 15.5478 34.1709 14.8082 36.2532 14.6259C35.4021 12.2061 32.2136 6.36968 24.9844 6.24988C24.9823 6.24988 24.9802 6.24988 24.9782 6.24988C18.6854 6.1478 16.6177 11.8665 15.9448 15.2832C16.8719 14.8905 17.9302 14.652 18.899 14.652C18.9136 14.652 18.9292 14.652 18.9438 14.652C21.3292 14.6697 22.9698 15.9426 23.4469 18.1457C23.7959 19.7624 23.9636 21.177 23.9594 22.4718C23.949 25.304 23.3782 26.7936 22.874 28.1082L22.7136 28.5332C22.5844 28.8811 22.4479 29.2051 22.3188 29.5093C22.1875 29.8197 22.0719 30.0957 21.9875 30.3447C22.4917 30.4593 22.8875 30.6207 23.1594 30.7405L23.3167 30.8093C23.3657 30.8301 23.4146 30.854 23.4594 30.8811C24.3427 31.4186 24.8927 32.2447 25.0104 33.2072C25.074 33.7259 25.0636 37.2624 25.0417 40.3478C25.1323 41.6863 25.3594 42.8103 25.6594 43.6249C26.0854 44.7853 27.15 47.0009 29.1948 46.8738C30.6219 46.7853 31.9938 45.9165 32.9042 44.7707C33.8813 43.5405 34.2417 42.1801 34.3771 40.6478V35.4165H34.375Z" fill="#0277BD"/>
<path d="M15.7436 30.1219C14.0634 28.3688 13.2446 26.0105 13.5519 23.8136C13.8488 21.6938 13.6811 19.6188 13.5905 18.5032C13.5603 18.1313 13.5405 17.8542 13.5415 17.7011C13.5415 17.6928 13.5436 17.6855 13.5446 17.6771C13.5446 17.673 13.5425 17.6698 13.5425 17.6657C13.6686 14.5188 14.8821 9.55421 18.2228 6.60317C16.5957 5.96255 13.9457 5.11776 11.4582 5.20838C7.56025 5.35005 3.78734 8.04588 4.1665 15.625C4.30921 18.4688 7.52275 35.524 11.9165 35.4167C12.5446 35.4011 13.1967 34.998 13.8665 34.1917C14.9259 32.9178 15.955 31.7625 16.6873 30.9584C16.3592 30.7094 16.0425 30.4344 15.7436 30.1219ZM38.5655 15.3448C38.5811 15.5053 38.5675 15.6428 38.5425 15.7698C38.5748 16.7282 38.4717 17.6584 38.3665 18.5584C38.2894 19.2209 38.2103 19.9053 38.1884 20.5917C38.1665 21.2636 38.2613 21.9271 38.3613 22.6292C38.5957 24.273 38.8394 26.1282 37.5644 28.2928C37.7988 28.6011 38.005 28.8875 38.1696 29.1646C42.9717 21.3782 44.9071 12.1219 43.0603 9.76255C40.2655 6.19171 36.3967 5.15838 33.3321 5.20838C32.3728 5.22401 31.5009 5.35317 30.7561 5.51463C36.0436 8.07713 38.3988 13.5688 38.5655 15.3448ZM42.7082 31.324C39.9321 31.8969 38.5967 31.5917 37.9488 31.1928C37.8446 31.2678 37.7405 31.3313 37.6436 31.3907C37.2561 31.625 36.6425 31.998 36.4925 34.2886C36.579 34.3053 36.655 34.3146 36.7488 34.3344L37.2019 34.375C38.5769 34.4375 40.378 34.0521 41.4342 33.5615C43.7103 32.5053 44.9509 30.8615 42.7082 31.324ZM22.9405 33.4573C22.9019 33.1469 22.7342 32.8959 22.428 32.6948L22.3155 32.6459C21.9394 32.4803 21.5134 32.2917 20.8332 32.2917H20.829C20.6967 32.3021 20.5655 32.3115 20.4332 32.3115C20.379 32.3115 20.3259 32.3042 20.2717 32.3021C19.778 32.6823 19.0759 32.9761 17.3384 33.3334C14.2342 34.124 16.0665 35.0573 17.2571 35.2021C18.4092 35.4907 21.1478 35.8417 22.9665 34.3594C22.9613 33.8928 22.953 33.5719 22.9405 33.4573Z" fill="#0277BD"/>
<path d="M21.5428 19.2719C21.2386 19.5865 20.7584 19.8615 20.2282 19.776C19.3657 19.6365 18.7042 18.5958 18.7521 18.2052C18.798 17.8156 19.5344 17.6125 20.3959 17.7521C20.6949 17.801 20.9667 17.8854 21.1959 17.9896C20.8626 17.2729 20.2594 16.8594 19.3396 16.7583C17.7094 16.5771 15.9792 17.4292 15.6313 17.901C15.6386 18.0156 15.6521 18.1625 15.6657 18.3354C15.7626 19.5302 15.9417 21.7562 15.6136 24.1031C15.3969 25.65 16.023 27.4042 17.2459 28.6813C18.0344 29.5042 18.9553 30.025 19.8636 30.1792C19.9792 29.6812 20.1855 29.1958 20.398 28.6948C20.5157 28.4188 20.6407 28.125 20.7584 27.8073L20.9271 27.3625C21.3886 26.1594 21.8646 24.9146 21.874 22.4635C21.8782 21.5208 21.7626 20.4448 21.5428 19.2719ZM36.299 22.924C36.1907 22.1646 36.0792 21.3781 36.1063 20.525C36.1303 19.7521 36.2157 19.0229 36.298 18.3177C36.3626 17.7625 36.4126 17.2292 36.4417 16.7031C35.099 16.8146 34.2074 17.2021 33.7844 17.8573C33.9594 17.7979 34.1574 17.751 34.3761 17.7229C35.3053 17.6021 35.9834 17.8698 36.0615 18.3865C36.1188 18.7646 35.798 19.1208 35.6574 19.2573C35.3688 19.5375 35.0053 19.7177 34.6355 19.7656C34.5688 19.774 34.5011 19.7781 34.4355 19.7781C34.0678 19.7781 33.7167 19.6521 33.4469 19.4656C33.5636 21.5208 35.0792 24.2698 35.8251 25.6187C35.9844 25.9073 36.1074 26.1375 36.2094 26.3354C36.6188 25.1698 36.4678 24.1073 36.299 22.924Z" fill="#0277BD"/>
</svg>
