<svg width="50" height="50" viewBox="0 0 50 50" fill="none" xmlns="http://www.w3.org/2000/svg">
<path d="M25 29.6875C27.5888 29.6875 29.6875 27.5888 29.6875 25C29.6875 22.4112 27.5888 20.3125 25 20.3125C22.4112 20.3125 20.3125 22.4112 20.3125 25C20.3125 27.5888 22.4112 29.6875 25 29.6875Z" fill="url(#paint0_linear_83_353)"/>
<path d="M45.3125 24.9999C45.3125 22.0639 41.9977 19.5178 36.8336 17.9749C37.0062 17.1694 37.1516 16.3772 37.243 15.6194C37.7563 11.3358 36.8656 8.3358 34.7344 7.17173C32.6023 6.00845 29.5984 6.88111 26.2727 9.62955C25.8477 9.98033 25.4234 10.3624 25 10.7624C24.5766 10.3616 24.1523 9.98033 23.7273 9.62955C20.4016 6.88111 17.3961 6.00923 15.2656 7.17173C13.1344 8.33501 12.2438 11.335 12.757 15.6194C12.8477 16.378 12.9938 17.1694 13.1664 17.9749C8.00234 19.5178 4.6875 22.0639 4.6875 24.9999C4.6875 27.9358 8.00234 30.4819 13.1664 32.0249C12.9938 32.8303 12.8484 33.6225 12.757 34.3803C12.2438 38.6639 13.1344 41.6639 15.2656 42.828C15.882 43.1647 16.5703 43.3303 17.3187 43.3303C19.1602 43.3303 21.3633 42.3249 23.7273 40.371C24.1523 40.0202 24.5766 39.6381 25 39.2381C25.4234 39.6389 25.8477 40.0202 26.2727 40.371C28.6367 42.3249 30.8398 43.3303 32.6813 43.3303C33.4297 43.3303 34.1187 43.1639 34.7344 42.828C36.8656 41.6647 37.7563 38.6647 37.243 34.3803C37.1523 33.6217 37.0062 32.8303 36.8336 32.0249C41.9977 30.4819 45.3125 27.9358 45.3125 24.9999ZM27.2672 10.8327C30.025 8.55376 32.4742 7.71783 33.9852 8.54283C35.4961 9.36705 36.1172 11.8788 35.6914 15.4319C35.6094 16.1186 35.4781 16.835 35.325 17.5639C33.6711 17.1585 31.8641 16.8491 29.9406 16.653C28.7188 14.8756 27.4289 13.2538 26.1063 11.8624C26.4922 11.4983 26.8797 11.153 27.2672 10.8327ZM31.1711 28.3694C30.5047 29.5897 29.7961 30.7561 29.0602 31.8647C27.7703 31.9725 26.4148 32.0311 25 32.0311C23.5852 32.0311 22.2297 31.9725 20.9391 31.8647C20.2039 30.7553 19.4945 29.5897 18.8281 28.3694C18.2156 27.2483 17.657 26.121 17.1547 24.9999C17.657 23.8795 18.2156 22.7522 18.8281 21.6303C19.4945 20.41 20.2031 19.2436 20.9391 18.135C22.2297 18.0272 23.5852 17.9686 25 17.9686C26.4148 17.9686 27.7703 18.0272 29.0609 18.135C29.7961 19.2444 30.5055 20.41 31.1719 21.6303C31.7844 22.7514 32.343 23.8788 32.8453 24.9999C32.343 26.1202 31.7836 27.2475 31.1711 28.3694ZM33.6547 26.9428C34.1859 28.3014 34.6219 29.6335 34.9641 30.9241C33.7578 31.2178 32.4562 31.4663 31.0508 31.6499C31.5641 30.8295 32.0664 29.9905 32.5422 29.1178C32.9383 28.3952 33.3039 27.6686 33.6547 26.9428ZM25 37.0335C24.0063 35.9858 23.0297 34.7967 22.0867 33.5077C23.0367 33.5631 24.0078 33.5936 25 33.5936C25.9922 33.5936 26.9633 33.5631 27.9133 33.5077C26.9703 34.7967 25.9937 35.9858 25 37.0335ZM18.9484 31.6499C17.543 31.4663 16.2414 31.2178 15.0352 30.9241C15.3773 29.6335 15.8133 28.3006 16.3445 26.9428C16.6961 27.6694 17.0617 28.3952 17.4563 29.1186C17.9328 29.9905 18.4352 30.8295 18.9484 31.6499ZM16.3453 23.0569C15.8141 21.6983 15.3781 20.3655 15.0359 19.0756C16.2422 18.7819 17.5437 18.5335 18.9492 18.3499C18.4359 19.1702 17.9336 20.0092 17.4578 20.8819C17.0617 21.6045 16.6961 22.3311 16.3453 23.0569ZM25 12.9663C25.9937 14.0139 26.9703 15.203 27.9133 16.492C26.9633 16.4366 25.9922 16.4061 25 16.4061C24.0078 16.4061 23.0367 16.4366 22.0867 16.492C23.0297 15.203 24.0063 14.0139 25 12.9663ZM32.543 20.8819C32.0672 20.01 31.5648 19.171 31.0516 18.3499C32.457 18.5335 33.7586 18.7819 34.9648 19.0756C34.6227 20.3663 34.1867 21.6991 33.6555 23.0569C33.3039 22.3311 32.9383 21.6045 32.543 20.8819ZM14.3086 15.4327C13.882 11.8788 14.5039 9.36705 16.0148 8.54361C16.3961 8.33501 16.8375 8.23345 17.3281 8.23345C18.7812 8.23345 20.6703 9.12955 22.7328 10.8335C23.1203 11.1538 23.5086 11.4991 23.8953 11.8639C22.5727 13.2553 21.282 14.8764 20.0609 16.6545C18.1367 16.8506 16.3297 17.1608 14.6766 17.5655C14.5219 16.8358 14.3914 16.1194 14.3086 15.4327ZM6.25 24.9999C6.25 22.9686 8.96094 20.8569 13.5289 19.4842C14.0023 21.2647 14.6516 23.1202 15.4594 24.9999C14.6516 26.8803 14.0023 28.7358 13.5289 30.5155C8.96094 29.1428 6.25 27.0311 6.25 24.9999ZM22.7328 39.167C19.975 41.446 17.5281 42.2835 16.0148 41.4569C14.5039 40.6327 13.8828 38.121 14.3086 34.5678C14.3906 33.8811 14.5219 33.1647 14.675 32.4358C16.3289 32.8413 18.1359 33.1506 20.0594 33.3467C21.2812 35.1241 22.5711 36.746 23.8937 38.1374C23.5078 38.5014 23.1203 38.8467 22.7328 39.167ZM35.6914 34.567C36.118 38.121 35.4961 40.6327 33.9852 41.4561C32.4742 42.2835 30.0258 41.4452 27.2672 39.1663C26.8797 38.846 26.4914 38.5006 26.1047 38.1358C27.4273 36.7444 28.718 35.1233 29.9391 33.3452C31.8633 33.1491 33.6703 32.8389 35.3234 32.4342C35.4781 33.1639 35.6086 33.8803 35.6914 34.567ZM36.4711 30.5155C35.9977 28.735 35.3484 26.8795 34.5406 24.9999C35.3484 23.1194 35.9977 21.2639 36.4711 19.4842C41.0391 20.8569 43.75 22.9686 43.75 24.9999C43.75 27.0311 41.0391 29.1428 36.4711 30.5155Z" fill="url(#paint1_linear_83_353)"/>
<defs>
<linearGradient id="paint0_linear_83_353" x1="25" y1="19.6977" x2="25" y2="28.6891" gradientUnits="userSpaceOnUse">
<stop stop-color="#6DC7FF"/>
<stop offset="1" stop-color="#E6ABFF"/>
</linearGradient>
<linearGradient id="paint1_linear_83_353" x1="25" y1="5.80142" x2="25" y2="41.7499" gradientUnits="userSpaceOnUse">
<stop stop-color="#1A6DFF"/>
<stop offset="1" stop-color="#C822FF"/>
</linearGradient>
</defs>
</svg>
