<svg width="150" height="150" viewBox="0 0 150 150" fill="none" xmlns="http://www.w3.org/2000/svg">
<path d="M78.7842 0.0947266C79.0829 0.109727 79.3801 0.130977 79.6779 0.149414C79.3801 0.131289 79.0832 0.109727 78.7842 0.0947266Z" fill="#BDBDBD"/>
<path d="M0.0458008 77.492C0.0389258 77.2836 0.0289258 77.0754 0.0239258 76.8667C0.0289258 77.0758 0.0389258 77.2833 0.0458008 77.492Z" fill="#BDBDBD"/>
<path d="M0.449531 83.2118C0.419844 82.9402 0.389844 82.6687 0.363281 82.3965C0.389844 82.669 0.420156 82.9402 0.449531 83.2118Z" fill="#BDBDBD"/>
<path d="M94.8629 2.66406C106.912 5.97125 117.747 12.2122 126.562 20.5644C123.589 20.2059 120.569 20 117.5 20C114.029 20 110.614 20.2413 107.268 20.6978C107.408 20.8813 107.546 21.0684 107.678 21.2631C110.528 25.4734 110.184 30.6837 106.909 32.9006C103.634 35.1175 98.6689 33.5013 95.8189 29.2909C94.6304 27.5353 93.9995 25.6066 93.9026 23.7928C88.2245 25.6737 82.8482 28.215 77.8623 31.3253C79.2001 33.0253 80.0001 35.1684 80.0001 37.5C80.0001 43.0228 75.5229 47.5 70.0001 47.5C66.9892 47.5 64.2914 46.1675 62.4579 44.0622C50.0732 57.4381 42.5001 75.3334 42.5001 95C42.5001 116.442 51.5126 135.767 65.9382 149.436C41.5898 146.501 20.8311 131.909 9.41699 111.402C22.2217 134.422 46.7898 150 75.0001 150C116.421 150 150 116.421 150 75C150 40.4556 126.644 11.3713 94.8629 2.66406ZM58.2251 58.225C59.1748 57.2997 60.8251 57.2997 61.7748 58.225C62.2242 58.7 62.4998 59.3494 62.4998 60C62.4998 60.6494 62.2239 61.3 61.7748 61.775C61.2989 62.2244 60.6492 62.5 59.9998 62.5C59.3504 62.5 58.6986 62.2241 58.2248 61.775C57.7732 61.3 57.4998 60.6494 57.4998 60C57.5001 59.325 57.7736 58.7 58.2251 58.225ZM56.7751 121.775C56.2992 122.224 55.6495 122.5 55.0001 122.5C54.3507 122.5 53.6989 122.224 53.2251 121.775C52.7736 121.3 52.5001 120.649 52.5001 120C52.5001 119.349 52.7736 118.7 53.2251 118.225C54.1748 117.299 55.8251 117.299 56.7748 118.225C57.2242 118.7 57.4998 119.349 57.4998 120C57.5001 120.649 57.2242 121.3 56.7751 121.775ZM57.5001 93.75C57.5001 86.1563 63.6561 80 71.2501 80C78.8439 80 85.0001 86.1559 85.0001 93.75C85.0001 101.344 78.8442 107.5 71.2501 107.5C63.6561 107.5 57.5001 101.344 57.5001 93.75ZM83.8367 137.16C77.6942 138.804 71.6976 136.339 70.4426 131.653C69.1876 126.967 73.1498 121.834 79.2923 120.189C85.4348 118.545 91.4314 121.01 92.6864 125.696C93.9414 130.383 89.9792 135.515 83.8367 137.16ZM101.775 91.775C101.299 92.2244 100.649 92.5 100 92.5C99.3507 92.5 98.6989 92.2241 98.2251 91.775C97.7736 91.3 97.5001 90.6494 97.5001 90C97.5001 89.3494 97.7736 88.7 98.2251 88.225C99.1748 87.2997 100.825 87.2997 101.775 88.225C102.224 88.7 102.5 89.3494 102.5 90C102.5 90.6494 102.224 91.3 101.775 91.775ZM97.5001 67.5C93.3579 67.5 90.0001 64.1422 90.0001 60C90.0001 55.8578 93.3579 52.5 97.5001 52.5C101.642 52.5 105 55.8578 105 60C105 64.1422 101.642 67.5 97.5001 67.5ZM118.249 45.725C119.124 44.8241 120.825 44.7997 121.775 45.725C122.224 46.2 122.5 46.8494 122.5 47.5C122.5 48.1494 122.224 48.8 121.775 49.275C121.299 49.7244 120.649 50 120 50C119.324 50 118.699 49.7241 118.225 49.275C117.773 48.8 117.5 48.1494 117.5 47.5C117.5 46.825 117.774 46.2 118.249 45.725ZM119.955 110.179C117.144 112.99 113.157 113.559 111.049 111.451C108.941 109.343 109.51 105.356 112.321 102.545C115.132 99.7344 119.119 99.1647 121.227 101.272C123.335 103.38 122.766 107.368 119.955 110.179ZM121.34 83.6362C117.495 83.0025 115.064 78.3328 115.909 73.2063C116.754 68.0797 120.556 64.4378 124.401 65.0716C128.245 65.7053 130.677 70.375 129.832 75.5016C128.987 80.6281 125.185 84.27 121.34 83.6362Z" fill="#BDBDBD"/>
<path d="M89.7031 1.44531C90.1841 1.54094 90.6628 1.6425 91.1403 1.7475C90.6625 1.6425 90.1837 1.54063 89.7031 1.44531Z" fill="#BDBDBD"/>
<path d="M0.270566 81.3562C0.248379 81.0928 0.224941 80.83 0.205566 80.5659C0.224941 80.83 0.248691 81.0931 0.270566 81.3562Z" fill="#BDBDBD"/>
<path d="M0.671289 85.0461C0.634102 84.7692 0.597539 84.4923 0.563477 84.2148C0.597852 84.4923 0.634414 84.7692 0.671289 85.0461Z" fill="#BDBDBD"/>
<path d="M6.25949 105.029C6.08793 104.638 5.91793 104.244 5.75293 103.849C5.91793 104.244 6.08793 104.637 6.25949 105.029Z" fill="#BDBDBD"/>
<path d="M4.95453 101.849C4.79641 101.437 4.63922 101.025 4.48828 100.609C4.63922 101.025 4.79672 101.437 4.95453 101.849Z" fill="#BDBDBD"/>
<path d="M1.59398 90.4365C1.53398 90.1493 1.4768 89.8612 1.41992 89.5728C1.4768 89.8612 1.53367 90.1493 1.59398 90.4365Z" fill="#BDBDBD"/>
<path d="M1.98412 92.1984C1.91568 91.9074 1.85162 91.6149 1.78662 91.3228C1.85162 91.6149 1.916 91.9074 1.98412 92.1984Z" fill="#BDBDBD"/>
<path d="M2.88803 95.6758C2.7974 95.3599 2.71303 95.0411 2.62646 94.7236C2.71271 95.0414 2.7974 95.3599 2.88803 95.6758Z" fill="#BDBDBD"/>
<path d="M7.73322 108.194C7.53447 107.792 7.33885 107.388 7.14697 106.982C7.33854 107.389 7.53447 107.792 7.73322 108.194Z" fill="#BDBDBD"/>
<path d="M9.35408 111.29C9.11314 110.855 8.87721 110.418 8.64502 109.978C8.87721 110.418 9.11346 110.855 9.35408 111.29Z" fill="#BDBDBD"/>
<path d="M8.52588 109.752C8.30838 109.338 8.09525 108.92 7.88525 108.501C8.09525 108.92 8.30869 109.338 8.52588 109.752Z" fill="#BDBDBD"/>
<path d="M6.97725 106.618C6.7935 106.224 6.61225 105.828 6.43506 105.43C6.61193 105.828 6.7935 106.224 6.97725 106.618Z" fill="#BDBDBD"/>
<path d="M65.9381 149.436C51.5125 135.767 42.5 116.442 42.5 95C42.5 75.3334 50.0731 57.4384 62.4578 44.0625C64.2913 46.1675 66.9891 47.5 70 47.5C75.5228 47.5 80 43.0228 80 37.5C80 35.1684 79.2 33.0253 77.8622 31.3247C82.8478 28.2144 88.2241 25.6731 93.9025 23.7922C93.9994 25.6059 94.6303 27.535 95.8187 29.2903C98.6687 33.5006 103.634 35.1169 106.909 32.9C110.183 30.6831 110.528 25.4731 107.677 21.2625C107.546 21.0678 107.408 20.8806 107.268 20.6972C110.614 20.2413 114.028 20 117.5 20C120.569 20 123.589 20.2059 126.562 20.5644C117.747 12.2122 106.912 5.97125 94.8628 2.66406C94.8381 2.65719 94.8134 2.65063 94.7888 2.64406C94.2513 2.49719 93.7116 2.35625 93.1694 2.22125C93.1041 2.205 93.0388 2.18938 92.9734 2.17344C92.4672 2.04875 91.9591 1.92875 91.4487 1.81438C91.3462 1.79156 91.2431 1.76969 91.1406 1.74719C90.6631 1.64219 90.1844 1.54094 89.7034 1.445C89.5647 1.4175 89.4253 1.39188 89.2866 1.365C88.8375 1.27813 88.3878 1.19375 87.9359 1.115C87.7616 1.08469 87.5859 1.05719 87.4113 1.02813C86.9903 0.957813 86.5687 0.88875 86.1456 0.825625C85.9366 0.794375 85.7263 0.767188 85.5166 0.7375C85.1231 0.682188 84.73 0.626875 84.3347 0.577813C84.09 0.5475 83.8441 0.521875 83.5987 0.49375C83.2341 0.451875 82.8697 0.409063 82.5031 0.372813C82.2216 0.344688 81.9384 0.3225 81.6562 0.2975C81.3222 0.268125 80.9884 0.236563 80.6531 0.211563C80.3294 0.1875 80.0034 0.169688 79.6784 0.149688C79.3806 0.13125 79.0834 0.11 78.7847 0.095C78.3959 0.075625 78.0053 0.0640625 77.615 0.050625C77.3766 0.0425 77.1391 0.0303125 76.9 0.024375C76.2684 0.0084375 75.6353 0 75 0C33.5787 0 0 33.5788 0 75C0 75.6241 0.0084375 76.2463 0.02375 76.8666C0.02875 77.0756 0.0390625 77.2834 0.045625 77.4919C0.0590625 77.9025 0.0725 78.3131 0.0925 78.7222C0.104688 78.9706 0.121562 79.2175 0.13625 79.4653C0.157812 79.8328 0.179062 80.2 0.205937 80.5659C0.225312 80.83 0.24875 81.0928 0.270937 81.3563C0.3 81.7038 0.329375 82.0509 0.363437 82.3969C0.39 82.6694 0.42 82.9406 0.449688 83.2122C0.48625 83.5469 0.523437 83.8813 0.564375 84.2147C0.598437 84.4925 0.635 84.7694 0.672188 85.0459C0.715625 85.37 0.760313 85.6935 0.807813 86.0163C0.849375 86.2981 0.8925 86.5794 0.937188 86.86C0.987188 87.1753 1.03938 87.4897 1.09344 87.8038C1.1425 88.0884 1.19219 88.3728 1.24469 88.6563C1.30094 88.9625 1.36031 89.2678 1.42031 89.5725C1.47719 89.8609 1.53406 90.1491 1.59438 90.4363C1.65625 90.7325 1.72187 91.0278 1.78719 91.3228C1.85219 91.615 1.91656 91.9075 1.98469 92.1984C2.05125 92.4819 2.12188 92.7641 2.19156 93.0463C2.26563 93.3463 2.33875 93.6472 2.41656 93.946C2.48437 94.2063 2.55656 94.4644 2.62688 94.7238C2.71344 95.0416 2.79781 95.36 2.88844 95.6759C2.94625 95.8778 3.00844 96.0778 3.06781 96.2788C3.47719 97.6641 3.92344 99.0331 4.40937 100.384C4.43625 100.458 4.46156 100.534 4.48875 100.609C4.63969 101.024 4.79687 101.437 4.955 101.848C5.005 101.979 5.05344 102.111 5.10406 102.241C5.25969 102.639 5.42094 103.036 5.58312 103.431C5.64031 103.57 5.69594 103.71 5.75375 103.848C5.91875 104.244 6.08875 104.637 6.26031 105.029C6.31875 105.162 6.37625 105.296 6.43562 105.429C6.61281 105.828 6.79406 106.224 6.97781 106.618C7.03438 106.739 7.09031 106.861 7.1475 106.982C7.33937 107.388 7.535 107.792 7.73375 108.193C7.78437 108.296 7.835 108.398 7.88625 108.5C8.09625 108.919 8.30937 109.337 8.52687 109.751C8.56625 109.827 8.60625 109.902 8.64594 109.977C8.87844 110.417 9.11406 110.854 9.355 111.289C9.37594 111.326 9.39687 111.363 9.41781 111.401C20.8309 131.909 41.59 146.501 65.9381 149.436ZM96.5875 17.6531C99.7084 15.5403 104.344 16.9384 107.242 20.7163C102.659 21.3434 98.2119 22.3838 93.9325 23.7997C93.7972 21.2634 94.6781 18.9456 96.5875 17.6531ZM63.225 10.725C64.1503 9.79969 65.825 9.79969 66.7747 10.725C67.2241 11.2 67.4997 11.8494 67.4997 12.5C67.4997 13.1494 67.2238 13.8 66.7747 14.275C66.2988 14.7241 65.6494 15 65 15C64.3506 15 63.6988 14.7241 63.225 14.275C62.7734 13.8 62.5 13.175 62.5 12.5C62.5 11.825 62.7734 11.1744 63.225 10.725ZM60.0131 36.9853C60.2722 31.8719 64.3722 27.7722 69.4856 27.5128C69.6559 27.5044 69.8275 27.5 70 27.5C73.1934 27.5 76.0041 29.0244 77.835 31.3547C72.1691 34.8934 67.01 39.1638 62.4906 44.04C60.9594 42.2831 60 40.0138 60 37.5C60 37.3275 60.0044 37.1559 60.0131 36.9853ZM32.5628 31.3128C35.5016 28.3741 39.9688 28.0763 42.54 30.6478C45.1116 33.2194 44.8138 37.6863 41.875 40.625C38.9362 43.5638 34.4691 43.8616 31.8978 41.29C29.3266 38.7184 29.6241 34.2516 32.5628 31.3128ZM37.5 89.9688C37.5 90.6181 37.2241 91.2688 36.775 91.7438C36.2991 92.1931 35.6494 92.4688 35 92.4688C34.3506 92.4688 33.6987 92.1928 33.225 91.7438C32.7734 91.2688 32.5 90.6181 32.5 89.9688C32.5 89.3181 32.7734 88.6688 33.225 88.1938C34.1503 87.2684 35.8494 87.2684 36.7747 88.1938C37.2241 88.6688 37.5 89.3181 37.5 89.9688ZM15 70C15 64.4772 18.9175 60 23.75 60C28.5825 60 32.5 64.4772 32.5 70C32.5 75.5228 28.5825 80 23.75 80C18.9175 80 15 75.5228 15 70ZM24.0897 101.59C27.0187 98.6606 32.5587 99.4522 36.4641 103.358C40.3694 107.263 41.1609 112.803 38.2319 115.732C35.3028 118.661 29.7628 117.869 25.8575 113.964C21.9522 110.059 21.1606 104.518 24.0897 101.59Z" fill="#848484"/>
<path d="M23.75 80C28.5825 80 32.5 75.5228 32.5 70C32.5 64.4772 28.5825 60 23.75 60C18.9175 60 15 64.4772 15 70C15 75.5228 18.9175 80 23.75 80Z" fill="#5B5B5B"/>
<path d="M25.8576 113.963C29.7628 117.868 35.3029 118.659 38.2318 115.73C41.1607 112.802 40.3693 107.261 36.4641 103.356C32.5589 99.451 27.0187 98.6595 24.0898 101.588C21.1609 104.517 21.9524 110.057 25.8576 113.963Z" fill="#5B5B5B"/>
<path d="M121.227 101.274C119.119 99.1662 115.132 99.7359 112.321 102.547C109.51 105.357 108.941 109.345 111.049 111.453C113.157 113.561 117.144 112.991 119.955 110.181C122.766 107.37 123.335 103.382 121.227 101.274Z" fill="#848484"/>
<path d="M59.9997 62.5002C60.6491 62.5002 61.2984 62.2243 61.7747 61.7752C62.2241 61.3002 62.4997 60.6496 62.4997 60.0002C62.4997 59.3496 62.2237 58.7002 61.7747 58.2252C60.825 57.2999 59.1747 57.2999 58.225 58.2252C57.7734 58.7002 57.5 59.3252 57.5 60.0002C57.5 60.6496 57.7734 61.3002 58.225 61.7752C58.6984 62.2243 59.3503 62.5002 59.9997 62.5002Z" fill="#848484"/>
<path d="M33.225 88.194C32.7734 88.669 32.5 89.3184 32.5 89.969C32.5 90.6184 32.7734 91.269 33.225 91.744C33.6987 92.1934 34.3506 92.469 35 92.469C35.6494 92.469 36.2988 92.193 36.775 91.744C37.2244 91.269 37.5 90.6184 37.5 89.969C37.5 89.3184 37.2241 88.669 36.775 88.194C35.8497 87.2687 34.1503 87.2687 33.225 88.194Z" fill="#5B5B5B"/>
<path d="M98.225 88.2252C97.7734 88.7002 97.5 89.3496 97.5 90.0002C97.5 90.6496 97.7734 91.3002 98.225 91.7752C98.6988 92.2246 99.3506 92.5002 100 92.5002C100.649 92.5002 101.299 92.2243 101.775 91.7752C102.224 91.3002 102.5 90.6496 102.5 90.0002C102.5 89.3496 102.224 88.7002 101.775 88.2252C100.825 87.2999 99.1747 87.2999 98.225 88.2252Z" fill="#848484"/>
<path d="M120 49.9999C120.649 49.9999 121.298 49.724 121.775 49.2749C122.224 48.7999 122.5 48.1493 122.5 47.4999C122.5 46.8493 122.224 46.1999 121.775 45.7249C120.825 44.7996 119.123 44.824 118.249 45.7249C117.773 46.1999 117.5 46.8249 117.5 47.4999C117.5 48.1493 117.773 48.7999 118.225 49.2749C118.698 49.724 119.323 49.9999 120 49.9999Z" fill="#848484"/>
<path d="M65 14.9997C65.6494 14.9997 66.2987 14.7238 66.775 14.2747C67.2244 13.7997 67.5 13.1491 67.5 12.4997C67.5 11.8491 67.2241 11.1997 66.775 10.7247C65.8253 9.79943 64.1506 9.79943 63.2253 10.7247C62.7734 11.1741 62.5 11.8247 62.5 12.4997C62.5 13.1747 62.7734 13.7997 63.225 14.2747C63.6988 14.7238 64.3506 14.9997 65 14.9997Z" fill="#5B5B5B"/>
<path d="M53.225 118.225C52.7734 118.7 52.5 119.35 52.5 120C52.5 120.65 52.7734 121.3 53.225 121.775C53.6988 122.225 54.3506 122.5 55 122.5C55.6494 122.5 56.2987 122.224 56.775 121.775C57.2244 121.3 57.5 120.65 57.5 120C57.5 119.35 57.2241 118.7 56.775 118.225C55.8253 117.3 54.1747 117.3 53.225 118.225Z" fill="#848484"/>
<path d="M71.25 107.5C78.8439 107.5 85 101.344 85 93.75C85 86.1561 78.8439 80 71.25 80C63.6561 80 57.5 86.1561 57.5 93.75C57.5 101.344 63.6561 107.5 71.25 107.5Z" fill="#848484"/>
<path d="M97.5 67.5C101.642 67.5 105 64.1421 105 60C105 55.8579 101.642 52.5 97.5 52.5C93.3579 52.5 90 55.8579 90 60C90 64.1421 93.3579 67.5 97.5 67.5Z" fill="#848484"/>
<path d="M92.6889 125.689C91.4339 121.003 85.4369 118.537 79.2942 120.182C73.1515 121.827 69.1893 126.96 70.4444 131.646C71.6994 136.333 77.6964 138.798 83.8391 137.153C89.9817 135.508 93.944 130.376 92.6889 125.689Z" fill="#848484"/>
<path d="M129.839 75.5028C130.684 70.3763 128.253 65.7064 124.408 65.0724C120.563 64.4384 116.761 68.0804 115.915 73.2069C115.07 78.3334 117.502 83.0032 121.347 83.6372C125.191 84.2712 128.994 80.6293 129.839 75.5028Z" fill="#848484"/>
<path d="M62.4906 44.04C67.0097 39.1637 72.1688 34.8934 77.835 31.3547C76.0041 29.0244 73.1934 27.5 70 27.5C69.8275 27.5 69.6559 27.5044 69.4853 27.5131C64.3719 27.7722 60.2722 31.8722 60.0128 36.9856C60.0044 37.1559 60 37.3275 60 37.5C60 40.0134 60.9594 42.2831 62.4906 44.04Z" fill="#5B5B5B"/>
<path d="M31.898 41.2895C34.4695 43.861 38.9364 43.5632 41.8752 40.6244C44.814 37.6856 45.1118 33.2187 42.5403 30.6472C39.9689 28.0758 35.5019 28.3736 32.5631 31.3124C29.6243 34.2511 29.3266 38.7181 31.898 41.2895Z" fill="#5B5B5B"/>
<path d="M93.9325 23.7995C98.2118 22.3835 102.659 21.3432 107.242 20.716C104.344 16.9382 99.7084 15.5401 96.5874 17.6529C94.6781 18.9454 93.7971 21.2632 93.9325 23.7995Z" fill="#5B5B5B"/>
</svg>
