     <svg width="120" height="91" viewBox="0 0 120 91" fill="none" xmlns="http://www.w3.org/2000/svg">
  <style>
    .star {
      filter: url(#glow);
      transform-origin: center;
      animation: pulse 4s infinite cubic-bezier(0.4, 0, 0.2, 1);
    }
    .star:nth-child(2) {
      animation-delay: 0.6s;
    }
    .star:nth-child(3) {
      animation-delay: 1.2s;
    }
    @keyframes pulse {
      0%, 100% {
        opacity: 1;
        filter: url(#glow);
        transform: scale(1);
      }
      50% {
        opacity: 0.7;
        filter: url(#glow-soft);
        transform: scale(0.98);
      }
    }
  </style>
  
  <defs>
    <filter id="glow" x="-40%" y="-40%" width="180%" height="180%">
      <feGaussianBlur stdDeviation="4" result="blur"/>
      <feComposite in="SourceGraphic" in2="blur" operator="over" result="comp"/>
      <feMerge>
        <feMergeNode in="comp"/>
        <feMergeNode in="SourceGraphic"/>
      </feMerge>
    </filter>
    
    <filter id="glow-soft" x="-40%" y="-40%" width="180%" height="180%">
      <feGaussianBlur stdDeviation="2" result="blur"/>
      <feComposite in="SourceGraphic" in2="blur" operator="over" result="comp"/>
      <feMerge>
        <feMergeNode in="comp"/>
        <feMergeNode in="SourceGraphic"/>
      </feMerge>
    </filter>
  </defs>
  
  <path class="star" d="M34.6864 7.60352C35.6529 4.99166 39.3471 4.99166 40.3136 7.60352L47.1497 26.0779C47.4535 26.899 48.101 27.5465 48.9221 27.8503L67.3965 34.6864C70.0083 35.6529 70.0083 39.3471 67.3965 40.3136L48.9221 47.1497C48.101 47.4535 47.4535 48.101 47.1497 48.9221L40.3136 67.3965C39.3471 70.0083 35.6529 70.0083 34.6864 67.3965L27.8503 48.9221C27.5465 48.101 26.899 47.4535 26.0779 47.1497L7.60352 40.3136C4.99166 39.3471 4.99166 35.6529 7.60352 34.6864L26.0779 27.8503C26.899 27.5465 27.5465 26.899 27.8503 26.0779L34.6864 7.60352Z" fill="#4A3AFF"/>
  <path class="star" d="M79.6243 51.069C80.2686 49.3278 82.7314 49.3278 83.3757 51.069L87.2579 61.5605C87.4605 62.1079 87.8921 62.5395 88.4395 62.7421L98.931 66.6243C100.672 67.2686 100.672 69.7314 98.931 70.3757L88.4395 74.2579C87.8921 74.4605 87.4605 74.8921 87.2579 75.4395L83.3757 85.931C82.7314 87.6722 80.2686 87.6722 79.6243 85.931L75.7421 75.4395C75.5395 74.8921 75.1079 74.4605 74.5605 74.2579L64.069 70.3757C62.3278 69.7314 62.3278 67.2686 64.069 66.6243L74.5605 62.7421C75.1079 62.5395 75.5395 62.1079 75.7421 61.5605L79.6243 51.069Z" fill="#4A3AFF"/>
  <path class="star" d="M95.6243 5.06901C96.2686 3.32778 98.7314 3.32778 99.3757 5.06901L103.258 15.5605C103.46 16.1079 103.892 16.5395 104.44 16.7421L114.931 20.6243C116.672 21.2686 116.672 23.7314 114.931 24.3757L104.44 28.2579C103.892 28.4605 103.46 28.8921 103.258 29.4395L99.3757 39.931C98.7314 41.6722 96.2686 41.6722 95.6243 39.931L91.7421 29.4395C91.5395 28.8921 91.1079 28.4605 90.5605 28.2579L80.069 24.3757C78.3278 23.7314 78.3278 21.2686 80.069 20.6243L90.5605 16.7421C91.1079 16.5395 91.5395 16.1079 91.7421 15.5605L95.6243 5.06901Z" fill="#4A3AFF"/>
</svg>
