<svg width="118" height="24" viewBox="0 0 118 24" fill="none" xmlns="http://www.w3.org/2000/svg">
<path d="M10.9714 2.46103C11.2231 1.68641 12.319 1.6864 12.5707 2.46103L14.225 7.55262C14.3376 7.89905 14.6604 8.1336 15.0247 8.1336H20.3783C21.1928 8.1336 21.5314 9.17585 20.8725 9.6546L16.5413 12.8014C16.2467 13.0155 16.1233 13.395 16.2359 13.7414L17.8903 18.833C18.142 19.6076 17.2554 20.2518 16.5964 19.773L12.2653 16.6263C11.9706 16.4122 11.5715 16.4122 11.2768 16.6263L6.94568 19.773C6.28674 20.2518 5.40015 19.6076 5.65184 18.833L7.3062 13.7414C7.41876 13.395 7.29545 13.0155 7.00076 12.8014L2.6696 9.6546C2.01066 9.17585 2.34931 8.1336 3.1638 8.1336H8.51741C8.88167 8.1336 9.20449 7.89905 9.31705 7.55262L10.9714 2.46103Z" fill="#5D5DFF"/>
<path d="M34.5134 2.46103C34.7651 1.68641 35.861 1.6864 36.1127 2.46103L37.767 7.55262C37.8796 7.89905 38.2024 8.1336 38.5667 8.1336H43.9203C44.7348 8.1336 45.0734 9.17585 44.4145 9.6546L40.0833 12.8014C39.7886 13.0155 39.6653 13.395 39.7779 13.7414L41.4323 18.833C41.6839 19.6076 40.7973 20.2518 40.1384 19.773L35.8072 16.6263C35.5126 16.4122 35.1135 16.4122 34.8188 16.6263L30.4877 19.773C29.8287 20.2518 28.9421 19.6076 29.1938 18.833L30.8482 13.7414C30.9607 13.395 30.8374 13.0155 30.5428 12.8014L26.2116 9.6546C25.5527 9.17585 25.8913 8.1336 26.7058 8.1336H32.0594C32.4237 8.1336 32.7465 7.89905 32.859 7.55262L34.5134 2.46103Z" fill="#5D5DFF"/>
<path d="M58.0554 2.46103C58.3071 1.68641 59.403 1.6864 59.6547 2.46103L61.309 7.55262C61.4216 7.89905 61.7444 8.1336 62.1087 8.1336H67.4623C68.2768 8.1336 68.6154 9.17585 67.9565 9.6546L63.6253 12.8014C63.3306 13.0155 63.2073 13.395 63.3199 13.7414L64.9742 18.833C65.2259 19.6076 64.3393 20.2518 63.6804 19.773L59.3492 16.6263C59.0546 16.4122 58.6555 16.4122 58.3608 16.6263L54.0297 19.773C53.3707 20.2518 52.4841 19.6076 52.7358 18.833L54.3902 13.7414C54.5027 13.395 54.3794 13.0155 54.0847 12.8014L49.7536 9.6546C49.0946 9.17585 49.4333 8.1336 50.2478 8.1336H55.6014C55.9657 8.1336 56.2885 7.89905 56.401 7.55262L58.0554 2.46103Z" fill="#5D5DFF"/>
<path d="M81.5979 2.46103C81.8496 1.68641 82.9455 1.6864 83.1972 2.46103L84.8515 7.55262C84.9641 7.89905 85.2869 8.1336 85.6512 8.1336H91.0048C91.8193 8.1336 92.1579 9.17585 91.499 9.6546L87.1678 12.8014C86.8731 13.0155 86.7498 13.395 86.8624 13.7414L88.5167 18.833C88.7684 19.6076 87.8818 20.2518 87.2229 19.773L82.8917 16.6263C82.597 16.4122 82.198 16.4122 81.9033 16.6263L77.5721 19.773C76.9132 20.2518 76.0266 19.6076 76.2783 18.833L77.9327 13.7414C78.0452 13.395 77.9219 13.0155 77.6272 12.8014L73.2961 9.6546C72.6371 9.17585 72.9758 8.1336 73.7903 8.1336H79.1439C79.5081 8.1336 79.831 7.89905 79.9435 7.55262L81.5979 2.46103Z" fill="#5D5DFF"/>
<path d="M105.14 2.46103C105.392 1.68641 106.487 1.6864 106.739 2.46103L108.394 7.55262C108.506 7.89905 108.829 8.1336 109.193 8.1336H114.547C115.361 8.1336 115.7 9.17585 115.041 9.6546L110.71 12.8014C110.415 13.0155 110.292 13.395 110.404 13.7414L112.059 18.833C112.31 19.6076 111.424 20.2518 110.765 19.773L106.434 16.6263C106.139 16.4122 105.74 16.4122 105.445 16.6263L101.114 19.773C100.455 20.2518 99.5686 19.6076 99.8203 18.833L101.475 13.7414C101.587 13.395 101.464 13.0155 101.169 12.8014L96.8381 9.6546C96.1791 9.17585 96.5178 8.1336 97.3323 8.1336H102.686C103.05 8.1336 103.373 7.89905 103.486 7.55262L105.14 2.46103Z" fill="#5D5DFF"/>
</svg>
